<svg xmlns="http://www.w3.org/2000/svg" xmlns:xlink="http://www.w3.org/1999/xlink" id="Layer_2" width="131.175" height="75.032" x="0" y="0" enable-background="new -62.688 .562 131.175 75.032" version="1.1" viewBox="-62.688 0.562 131.175 75.032" xml:space="preserve"><g><g><linearGradient id="SVGID_1_" x1="241.602" x2="427.639" y1="-650.997" y2="-849.964" gradientTransform="matrix(1 0 0 -1 -246.7251 -658.4453)" gradientUnits="userSpaceOnUse"><stop offset="0" style="stop-color:#ffd13c"/><stop offset=".51" style="stop-color:#eca074"/><stop offset="1" style="stop-color:#d86daf"/></linearGradient><path fill="url(#SVGID_1_)" d="M6.406,0.562v32.178v3.337v39.517h62.081V0.562H6.406z M58.772,65.568h-42.39V10.541h42.39V65.568z"/><linearGradient id="SVGID_2_" x1="210.642" x2="213.449" y1="-547.107" y2="-799.723" gradientTransform="matrix(1 0 0 -1 -246.7251 -658.4453)" gradientUnits="userSpaceOnUse"><stop offset="0" style="stop-color:#ffd13c"/><stop offset="1" style="stop-color:#d86daf"/></linearGradient><polygon fill="url(#SVGID_2_)" points="-34.009 21.483 -62.688 75.595 -5.324 75.595"/><linearGradient id="SVGID_3_" x1="84.417" x2="85.455" y1="-579.558" y2="-673.009" gradientTransform="matrix(0.8316 0.5554 0.5554 -0.8316 247.608 -545.239)" gradientUnits="userSpaceOnUse"><stop offset="0" style="stop-color:#ffd13c"/><stop offset="1" style="stop-color:#d86daf"/></linearGradient><polygon fill="url(#SVGID_3_)" points="-21.933 44.266 -21.933 44.266 -18.271 6.298 -52.153 24.082"/><linearGradient id="SVGID_4_" x1="216.574" x2="221.976" y1="-695.176" y2="-682.977" gradientTransform="matrix(1 0 0 -1 -246.7251 -658.4453)" gradientUnits="userSpaceOnUse"><stop offset="0" style="stop-color:#db7463"/><stop offset="1" style="stop-color:#e07d59"/></linearGradient><polygon fill="url(#SVGID_4_)" points="-34.009 21.483 -39.768 32.352 -21.933 44.266"/><linearGradient id="SVGID_5_" x1="369.674" x2="26.084" y1="-955.43" y2="-1012.643" gradientTransform="matrix(0.9055 0.4243 -0.4243 0.9055 -539.3161 875.848)" gradientUnits="userSpaceOnUse"><stop offset="0" style="stop-color:#ffd13c"/><stop offset="1" style="stop-color:#d86daf"/></linearGradient><path fill="url(#SVGID_5_)" d="M31.218,39.45l-5.508-3.319l-38.921-24.373l-2.848,17.694l41.632,8.525L31.218,39.45z"/><polygon fill="#D66A6F" points="6.406 24.04 6.406 34.054 16.383 36.096 16.383 30.291"/><linearGradient id="SVGID_6_" x1="462.017" x2="170.487" y1="-840.289" y2="-603.442" gradientTransform="matrix(1 0 0 -1 -246.7251 -658.4453)" gradientUnits="userSpaceOnUse"><stop offset="0" style="stop-color:#ffd13c"/><stop offset="1" style="stop-color:#d86daf"/></linearGradient><circle cx="37.687" cy="37.553" r="12.206" fill="url(#SVGID_6_)"/></g></g></svg>